<?xml version="1.0" encoding="utf-8"?>
<!-- Generator: Adobe Illustrator 16.0.0, SVG Export Plug-In . SVG Version: 6.00 Build 0)  -->
<!DOCTYPE svg PUBLIC "-//W3C//DTD SVG 1.1//EN" "http://www.w3.org/Graphics/SVG/1.1/DTD/svg11.dtd">
<svg version="1.1" id="Calque_1" xmlns="http://www.w3.org/2000/svg" xmlns:xlink="http://www.w3.org/1999/xlink" x="0px" y="0px"
	 width="960px" height="560px" viewBox="0 0 960 560" enable-background="new 0 0 960 560" xml:space="preserve">
<path fill="#FFFFFF" d="M340,420h210c57.969,0,105-47.031,105-105h35c77.219,0,140-62.781,140-140S767.219,35,690,35H261.25
	C246.703,35,235,46.703,235,61.25V315C235,372.969,282.031,420,340,420z M690,105c38.609,0,70,31.391,70,70s-31.391,70-70,70h-35
	V105H690z M742.172,525H182.828c-52.063,0-66.719-70-39.375-70h637.984C808.781,455,794.344,525,742.172,525L742.172,525z"/>
</svg>
