<?xml version="1.0" encoding="utf-8"?>
<!-- Generator: Adobe Illustrator 16.0.0, SVG Export Plug-In . SVG Version: 6.00 Build 0)  -->
<!DOCTYPE svg PUBLIC "-//W3C//DTD SVG 1.1//EN" "http://www.w3.org/Graphics/SVG/1.1/DTD/svg11.dtd">
<svg version="1.1" id="Calque_1" xmlns="http://www.w3.org/2000/svg" xmlns:xlink="http://www.w3.org/1999/xlink" x="0px" y="0px"
	 width="960px" height="560px" viewBox="0 0 960 560" enable-background="new 0 0 960 560" xml:space="preserve">
<path fill="#FFFFFF" d="M480,8.75C330.432,8.75,208.75,130.432,208.75,280S330.432,551.25,480,551.25S751.25,429.568,751.25,280
	S629.568,8.75,480,8.75z M659.342,133.838c32.27,39.425,51.811,89.641,52.32,144.326c-7.64-1.615-84.239-17.152-161.331-7.457
	c-6.291-15.357-12.229-28.868-20.362-45.516C615.633,190.216,654.457,140.445,659.342,133.838z M633.585,107.045
	c-4.167,5.936-39.043,52.813-121.429,83.692c-37.966-69.755-80.046-127.059-86.45-135.633
	C499.18,37.393,576.606,56.493,633.585,107.045z M381.498,70.678c6.108,8.377,47.511,65.752,85.899,133.994
	c-108.376,28.78-203.831,28.365-214.193,28.229C268.228,161.005,316.679,101.252,381.498,70.678z M248.311,280.354
	c0-2.369,0.047-4.728,0.118-7.08c10.137,0.208,122.413,1.655,238.116-32.972c6.633,12.98,12.969,26.157,18.784,39.319
	c-83.78,23.597-159.9,91.358-197.456,155.647C270.869,394.193,248.311,339.861,248.311,280.354z M337.787,463.133
	c24.202-49.474,89.883-113.336,183.29-145.201c32.527,84.528,45.979,155.37,49.425,175.697
	C496.005,525.362,406.423,516.656,337.787,463.133z M609.453,472.418c-2.375-14.094-14.707-81.919-45.01-165.192
	c72.603-11.622,136.391,7.402,144.316,9.904C698.433,381.597,661.43,437.271,609.453,472.418z"/>
</svg>
