<?xml version="1.0" encoding="utf-8"?>
<!-- Generator: Adobe Illustrator 16.0.0, SVG Export Plug-In . SVG Version: 6.00 Build 0)  -->
<!DOCTYPE svg PUBLIC "-//W3C//DTD SVG 1.1//EN" "http://www.w3.org/Graphics/SVG/1.1/DTD/svg11.dtd">
<svg version="1.1" id="Calque_1" xmlns="http://www.w3.org/2000/svg" xmlns:xlink="http://www.w3.org/1999/xlink" x="0px" y="0px"
	 width="960px" height="560px" viewBox="0 0 960 560" enable-background="new 0 0 960 560" xml:space="preserve">
<path fill="#FFFFFF" d="M552.254,249.917c2.006,10.601,3.438,21.201,3.438,34.952C555.692,404.912,475.187,490,354,490
	c-116.029,0-210-93.97-210-210S237.971,70,354,70c56.726,0,103.997,20.627,140.668,55.007l-57.013,54.72
	c-15.471-14.898-42.687-32.374-83.655-32.374c-71.623,0-130.069,59.304-130.069,132.646c0,73.343,58.446,132.646,130.069,132.646
	c83.082,0,114.312-59.877,119.181-90.533H354v-72.197L552.254,249.917L552.254,249.917z M755.042,256.958V196h-61.251v60.958
	h-60.958v61.251h60.958v60.958h61.251v-60.958H816v-61.251H755.042L755.042,256.958z"/>
</svg>
