<?xml version="1.0" encoding="utf-8"?>
<!-- Generator: Adobe Illustrator 16.0.0, SVG Export Plug-In . SVG Version: 6.00 Build 0)  -->
<!DOCTYPE svg PUBLIC "-//W3C//DTD SVG 1.1//EN" "http://www.w3.org/Graphics/SVG/1.1/DTD/svg11.dtd">
<svg version="1.1" id="Calque_1" xmlns="http://www.w3.org/2000/svg" xmlns:xlink="http://www.w3.org/1999/xlink" x="0px" y="0px"
	 width="960px" height="560px" viewBox="0 0 960 560" enable-background="new 0 0 960 560" xml:space="preserve">
<path fill="#FFFFFF" d="M702.436,165.939c0.355,4.974,0.355,9.95,0.355,14.924c0,151.725-115.481,326.547-326.547,326.547
	c-65.026,0-125.431-18.833-176.244-51.521c9.239,1.064,18.121,1.42,27.716,1.42c53.654,0,103.045-18.121,142.487-49.034
	c-50.457-1.066-92.741-34.112-107.31-79.595c7.107,1.065,14.213,1.776,21.676,1.776c10.304,0,20.609-1.422,30.203-3.908
	c-52.588-10.661-92.031-56.853-92.031-112.64v-1.421c15.278,8.528,33.046,13.858,51.877,14.568
	c-30.914-20.61-51.167-55.787-51.167-95.584c0-21.319,5.684-40.863,15.634-57.918c56.498,69.645,141.422,115.126,236.649,120.102
	c-1.776-8.528-2.843-17.411-2.843-26.294c0-63.25,51.168-114.771,114.771-114.771c33.046,0,62.893,13.857,83.858,36.244
	c25.938-4.975,50.811-14.569,72.842-27.716c-8.528,26.65-26.649,49.036-50.456,63.249c23.097-2.486,45.482-8.884,66.091-17.766
	C744.366,129.34,724.821,149.593,702.436,165.939z"/>
</svg>
